<?xml version="1.0" encoding="UTF-8" standalone="no"?>
<!DOCTYPE svg PUBLIC "-//W3C//DTD SVG 20010904//EN"
              "http://www.w3.org/TR/2001/REC-SVG-20010904/DTD/svg10.dtd">

<svg xmlns="http://www.w3.org/2000/svg"
     width="14.2222in" height="10.6667in"
     viewBox="0 0 1024 768">
  <path id="Auswahl"
        fill="none" stroke="black" stroke-width="1"
        d="M 480.00,229.28
           C 483.47,231.30 496.35,240.25 499.00,240.64
             502.79,241.20 514.46,231.58 518.00,229.10
             526.82,222.90 549.23,212.15 560.00,212.00
             560.00,212.00 570.00,212.00 570.00,212.00
             583.16,212.07 605.50,222.31 618.57,226.73
             648.15,236.73 671.31,246.41 703.00,250.17
             708.74,250.85 708.82,251.91 716.00,252.00
             716.00,252.00 728.00,252.00 728.00,252.00
             735.64,251.99 735.75,251.59 743.00,250.18
             745.26,249.77 748.83,248.85 750.89,250.18
             753.39,251.75 756.94,262.73 758.19,266.00
             758.19,266.00 774.08,308.00 774.08,308.00
             774.08,308.00 794.53,362.00 794.53,362.00
             794.53,362.00 827.92,449.00 827.92,449.00
             827.92,449.00 838.64,478.00 838.64,478.00
             845.14,494.53 857.42,524.80 861.23,541.00
             863.78,551.83 864.11,562.87 851.00,566.85
             842.37,569.07 837.43,567.76 829.00,566.85
             818.02,566.21 806.69,564.73 795.96,562.19
             795.96,562.19 787.00,559.48 787.00,559.48
             750.18,549.88 715.93,533.11 680.00,520.93
             680.00,520.93 665.58,515.83 665.58,515.83
             665.58,515.83 647.00,511.35 647.00,511.35
             647.00,511.35 639.00,509.08 639.00,509.08
             639.00,509.08 631.00,509.08 631.00,509.08
             631.00,509.08 619.58,507.82 619.58,507.82
             586.70,508.10 556.51,528.84 532.70,549.71
             532.70,549.71 509.42,573.00 509.42,573.00
             507.66,575.05 502.69,581.80 500.00,581.80
             497.27,581.80 492.91,575.12 491.20,573.00
             485.53,565.99 475.09,554.68 468.42,548.74
             446.07,528.85 423.79,513.91 394.00,508.54
             386.83,507.24 387.85,506.91 380.00,507.00
             373.62,507.08 363.30,509.67 357.00,511.36
             357.00,511.36 316.00,524.47 316.00,524.47
             284.42,536.04 252.44,547.46 220.00,556.28
             206.55,559.94 184.61,565.84 171.00,566.00
             171.00,566.00 154.00,566.00 154.00,566.00
             144.80,565.99 134.63,563.20 134.22,552.00
             134.00,545.98 138.22,536.57 140.32,531.00
             140.32,531.00 152.99,497.00 152.99,497.00
             152.99,497.00 176.88,434.00 176.88,434.00
             176.88,434.00 192.80,393.00 192.80,393.00
             192.80,393.00 199.03,375.00 199.03,375.00
             199.03,375.00 223.01,313.00 223.01,313.00
             223.01,313.00 229.79,293.83 229.79,293.83
             229.79,293.83 232.88,287.00 232.88,287.00
             232.88,287.00 239.50,269.00 239.50,269.00
             240.68,265.94 245.45,252.10 246.92,250.52
             248.94,248.55 258.04,250.02 261.00,250.52
             261.00,250.52 273.00,251.96 273.00,251.96
             273.00,251.96 297.83,249.66 297.83,249.66
             316.89,247.44 336.87,242.66 355.00,236.30
             378.69,227.98 397.97,218.70 423.00,212.51
             446.69,208.80 460.44,217.93 480.00,229.28 Z
           M 483.00,279.00
           C 482.95,253.00 453.88,242.75 432.00,243.00
             425.71,243.08 421.96,244.23 416.00,245.49
             416.00,245.49 409.00,246.76 409.00,246.76
             409.00,246.76 363.00,264.29 363.00,264.29
             352.69,267.96 341.75,271.55 331.00,273.63
             331.00,273.63 324.00,274.46 324.00,274.46
             316.24,275.84 313.33,276.99 305.00,277.09
             305.00,277.09 290.00,277.09 290.00,277.09
             290.00,277.09 270.00,277.09 270.00,277.09
             267.21,277.01 263.81,276.67 261.56,278.60
             259.05,280.75 257.90,285.88 256.78,289.00
             256.78,289.00 248.47,311.00 248.47,311.00
             248.47,311.00 207.47,422.00 207.47,422.00
             207.47,422.00 178.22,503.00 178.22,503.00
             175.44,511.20 169.30,526.35 176.71,533.52
             183.50,540.10 198.94,536.51 207.00,534.62
             207.00,534.62 231.00,525.91 231.00,525.91
             231.00,525.91 287.00,503.53 287.00,503.53
             318.86,491.75 350.75,480.37 385.00,479.04
             385.00,479.04 396.00,479.91 396.00,479.91
             411.51,480.97 422.28,482.42 437.00,488.25
             445.62,491.67 458.31,498.17 465.72,503.63
             465.72,503.63 483.00,518.00 483.00,518.00
             483.00,518.00 483.00,279.00 483.00,279.00 Z
           M 545.00,497.62
           C 566.62,485.17 587.26,480.08 612.00,479.04
             617.90,478.79 619.05,479.57 624.00,479.91
             645.65,481.40 654.41,483.80 675.00,490.14
             700.30,497.94 724.46,507.78 749.00,517.60
             749.00,517.60 786.01,531.73 786.01,531.73
             793.47,534.24 799.98,536.90 808.00,537.00
             814.31,537.07 823.00,537.30 826.55,530.90
             829.85,524.94 826.68,514.06 824.58,508.00
             824.58,508.00 807.17,459.00 807.17,459.00
             807.17,459.00 771.57,362.00 771.57,362.00
             771.57,362.00 766.27,349.43 766.27,349.43
             766.27,349.43 762.21,337.00 762.21,337.00
             762.21,337.00 757.20,324.00 757.20,324.00
             757.20,324.00 744.18,289.00 744.18,289.00
             744.18,289.00 741.41,282.44 741.41,282.44
             739.48,277.81 740.29,277.11 734.00,277.00
             734.00,277.00 719.00,277.00 719.00,277.00
             719.00,277.00 695.00,277.00 695.00,277.00
             688.48,276.92 683.26,275.37 677.00,274.32
             656.71,270.93 643.08,266.54 624.00,258.85
             603.70,250.66 586.48,242.74 564.00,243.00
             548.21,243.19 524.60,252.56 519.65,269.00
             518.89,271.51 519.00,274.39 519.00,277.00
             519.00,277.00 519.00,516.00 519.00,516.00
             519.00,516.00 545.00,497.62 545.00,497.62 Z
           M 553.01,395.00
           C 552.90,386.13 555.77,378.06 561.48,371.17
             564.15,367.95 569.06,364.58 570.40,360.99
             571.21,358.81 570.96,353.77 571.28,351.00
             572.53,340.45 572.29,339.26 576.19,328.91
             586.26,302.21 613.84,284.03 642.00,284.00
             654.39,283.99 662.49,284.68 674.00,290.11
             677.94,291.97 681.69,293.22 684.00,297.00
             690.27,298.05 694.84,303.84 698.87,308.42
             706.77,317.42 713.32,330.16 715.53,342.00
             715.53,342.00 717.14,362.00 717.14,362.00
             717.88,366.65 723.03,371.48 725.69,376.00
             730.07,383.43 731.20,389.48 730.99,398.00
             730.74,407.79 725.89,417.17 718.96,423.95
             718.96,423.95 709.64,431.34 709.64,431.34
             707.15,434.22 704.56,442.85 695.43,451.62
             690.82,456.06 685.01,459.34 679.00,461.46
             679.00,461.46 673.04,463.41 673.04,463.41
             667.42,466.03 669.57,467.88 661.00,468.00
             657.82,468.04 651.81,468.37 649.13,466.83
             643.96,463.85 644.67,456.51 650.04,454.19
             650.04,454.19 665.91,453.68 665.91,453.68
             667.97,453.99 668.78,454.91 671.17,454.69
             681.73,453.70 693.23,442.90 698.00,434.00
             698.00,434.00 692.00,434.00 692.00,434.00
             692.00,434.00 692.00,358.00 692.00,358.00
             692.00,358.00 704.00,359.00 704.00,359.00
             703.92,349.70 702.05,340.34 697.91,332.00
             695.36,326.86 691.82,320.77 687.96,316.52
             679.67,307.36 663.46,298.69 651.17,297.00
             645.25,296.19 636.79,297.17 631.00,298.50
             603.05,304.92 584.09,329.49 584.00,358.00
             584.00,358.00 592.00,358.00 592.00,358.00
             592.00,358.00 592.00,434.00 592.00,434.00
             568.89,433.98 553.29,417.95 553.01,395.00 Z
           M 140.26,445.92
           C 140.26,445.92 151.89,419.84 151.89,419.84
             151.89,419.84 181.58,354.00 181.58,354.00
             181.58,354.00 194.48,326.00 194.48,326.00
             194.48,326.00 208.63,294.00 208.63,294.00
             210.21,290.49 212.95,284.84 217.86,286.64
             224.69,289.15 218.94,301.83 217.15,306.00
             217.15,306.00 193.19,361.58 193.19,361.58
             193.19,361.58 150.51,461.00 150.51,461.00
             150.51,461.00 125.71,518.00 125.71,518.00
             125.71,518.00 109.61,555.00 109.61,555.00
             107.22,560.50 103.80,568.15 106.23,574.00
             109.23,581.26 115.80,583.80 123.00,585.08
             134.20,587.06 144.69,587.13 156.00,587.00
             156.00,587.00 166.00,586.09 166.00,586.09
             166.00,586.09 184.00,584.71 184.00,584.71
             214.85,580.69 258.67,568.45 289.00,559.43
             316.18,551.35 342.54,543.90 371.00,541.91
             371.00,541.91 381.00,541.01 381.00,541.01
             381.00,541.01 411.00,544.31 411.00,544.31
             426.93,547.30 446.85,556.39 459.83,566.00
             459.83,566.00 485.00,586.00 485.00,586.00
             485.00,586.00 484.00,588.00 484.00,588.00
             484.00,588.00 500.00,602.00 500.00,602.00
             507.25,591.05 521.28,579.28 532.00,571.58
             555.83,554.45 582.72,544.05 612.00,541.91
             612.00,541.91 621.00,541.03 621.00,541.03
             621.00,541.03 629.00,541.83 629.00,541.83
             629.00,541.83 666.00,547.51 666.00,547.51
             666.00,547.51 673.00,549.49 673.00,549.49
             673.00,549.49 691.00,553.49 691.00,553.49
             691.00,553.49 697.91,555.69 697.91,555.69
             697.91,555.69 705.04,557.09 705.04,557.09
             705.04,557.09 770.00,574.34 770.00,574.34
             770.00,574.34 790.00,578.51 790.00,578.51
             790.00,578.51 797.91,580.74 797.91,580.74
             811.42,583.77 838.24,587.43 852.00,587.96
             852.00,587.96 861.91,587.23 861.91,587.23
             872.54,586.48 891.21,585.04 893.73,572.00
             895.21,564.32 889.87,553.86 886.66,547.00
             886.66,547.00 871.72,512.00 871.72,512.00
             871.72,512.00 806.38,362.00 806.38,362.00
             806.38,362.00 781.58,305.00 781.58,305.00
             779.79,300.80 774.16,287.49 783.00,286.76
             789.29,286.25 793.62,299.30 795.77,304.00
             795.77,304.00 821.71,362.00 821.71,362.00
             821.71,362.00 905.54,547.00 905.54,547.00
             905.54,547.00 910.86,559.00 910.86,559.00
             915.85,570.29 920.36,576.22 923.73,589.00
             925.55,595.91 925.56,601.67 917.99,605.01
             916.13,605.82 913.03,606.43 911.00,606.99
             908.27,607.10 904.75,607.36 902.00,606.99
             902.00,606.99 894.00,606.99 894.00,606.99
             894.00,606.99 544.00,606.99 544.00,606.99
             544.00,606.99 544.00,623.00 544.00,623.00
             544.00,623.00 542.40,628.98 542.40,628.98
             542.40,628.98 535.00,630.00 535.00,630.00
             535.00,630.00 457.00,630.00 457.00,630.00
             457.00,630.00 457.00,608.00 457.00,608.00
             457.00,608.00 163.00,608.00 163.00,608.00
             163.00,608.00 97.00,608.00 97.00,608.00
             87.43,607.99 73.97,607.11 75.20,594.00
             76.04,585.05 85.00,567.60 88.98,559.00
             88.98,559.00 118.93,493.00 118.93,493.00
             121.93,486.47 131.61,466.87 132.00,461.00
             135.62,457.34 138.05,450.72 140.26,445.92 Z
           M 348.00,299.00
           C 348.00,299.00 365.00,299.00 365.00,299.00
             379.95,299.07 398.74,308.75 409.83,318.42
             442.29,346.75 444.31,398.24 415.83,430.00
             409.43,437.13 398.73,444.99 390.00,449.05
             376.91,455.13 366.11,456.16 352.00,456.00
             345.43,455.92 342.20,454.81 336.00,453.22
             293.28,442.27 268.41,395.69 281.59,354.00
             291.01,324.23 311.73,307.92 341.00,299.53
             344.10,299.02 344.89,299.02 348.00,299.00 Z
           M 308.00,325.00
           C 313.95,328.73 319.90,332.26 327.00,333.00
             330.12,323.13 339.15,314.43 345.00,306.00
             332.36,308.54 316.13,314.59 308.00,325.00 Z
           M 376.76,316.00
           C 376.76,316.00 387.00,333.00 387.00,333.00
             394.10,332.26 400.05,328.73 406.00,325.00
             397.27,313.83 382.98,309.76 370.00,306.00
             370.00,306.00 376.76,316.00 376.76,316.00 Z
           M 360.00,339.00
           C 360.00,339.00 381.00,336.00 381.00,336.00
             378.64,326.11 368.25,314.86 361.00,308.00
             361.00,308.00 360.00,339.00 360.00,339.00 Z
           M 333.00,336.00
           C 333.00,336.00 354.00,339.00 354.00,339.00
             354.00,339.00 353.00,309.00 353.00,309.00
             344.81,314.86 335.85,326.22 333.00,336.00 Z
           M 302.00,330.00
           C 291.79,344.18 285.82,356.17 285.00,374.00
             285.00,374.00 316.00,374.00 316.00,374.00
             316.04,361.11 319.82,351.08 323.00,339.00
             323.00,339.00 302.00,330.00 302.00,330.00 Z
           M 391.00,339.00
           C 393.17,351.13 397.65,358.01 398.00,374.00
             398.00,374.00 429.00,374.00 429.00,374.00
             428.13,355.11 422.13,345.20 412.00,330.00
             412.00,330.00 391.00,339.00 391.00,339.00 Z
           M 329.00,342.00
           C 325.17,353.71 323.11,361.52 323.00,374.00
             323.00,374.00 354.00,374.00 354.00,374.00
             354.00,374.00 353.00,346.00 353.00,346.00
             353.00,346.00 329.00,342.00 329.00,342.00 Z
           M 360.00,345.00
           C 360.00,345.00 360.00,374.00 360.00,374.00
             360.00,374.00 391.00,374.00 391.00,374.00
             390.78,364.02 388.79,350.79 384.00,342.00
             384.00,342.00 360.00,345.00 360.00,345.00 Z
           M 286.19,391.00
           C 287.84,398.68 290.31,406.22 294.29,413.00
             295.59,415.22 298.73,420.85 301.18,421.56
             303.38,422.21 306.12,420.30 308.00,419.31
             312.52,416.91 317.07,414.41 322.00,413.00
             319.74,401.79 316.11,393.03 316.00,381.00
             316.00,381.00 286.19,380.00 286.19,380.00
             284.44,384.06 285.61,386.86 286.19,391.00 Z
           M 360.00,406.00
           C 360.00,406.00 386.00,410.00 386.00,410.00
             388.25,398.10 390.70,394.92 391.00,381.00
             391.00,381.00 361.00,380.00 361.00,380.00
             361.00,380.00 360.00,406.00 360.00,406.00 Z
           M 395.81,398.00
           C 395.81,398.00 392.00,413.00 392.00,413.00
             397.37,414.46 400.22,416.16 405.00,418.85
             406.75,419.84 409.88,421.91 411.90,421.76
             414.97,421.53 418.25,415.48 419.67,413.00
             425.52,402.70 428.05,392.74 429.00,381.00
             429.00,381.00 399.00,380.00 399.00,380.00
             399.00,380.00 395.81,398.00 395.81,398.00 Z
           M 323.00,381.00
           C 323.32,395.70 325.51,397.65 328.00,410.00
             328.00,410.00 353.00,406.00 353.00,406.00
             353.00,406.00 353.00,381.00 353.00,381.00
             353.00,381.00 323.00,381.00 323.00,381.00 Z
           M 331.00,416.00
           C 332.96,420.20 333.91,423.58 338.00,426.00
             338.95,432.78 347.55,442.06 353.00,446.00
             353.00,446.00 354.00,413.00 354.00,413.00
             354.00,413.00 331.00,416.00 331.00,416.00 Z
           M 360.00,413.00
           C 360.00,413.00 360.00,447.00 360.00,447.00
             368.90,440.57 378.60,426.15 383.00,416.00
             383.00,416.00 360.00,413.00 360.00,413.00 Z
           M 306.00,428.00
           C 312.52,435.93 322.63,441.07 332.00,444.86
             336.05,446.49 340.67,448.23 345.00,447.00
             336.21,439.30 330.70,429.00 325.00,419.00
             317.49,420.76 312.44,423.95 306.00,428.00 Z
           M 389.00,419.00
           C 389.00,419.00 377.85,437.00 377.85,437.00
             377.85,437.00 369.00,448.00 369.00,448.00
             383.08,446.13 398.60,438.86 408.00,428.00
             401.56,423.95 396.51,420.76 389.00,419.00 Z
           M 353.00,446.00
           C 353.00,446.00 354.00,447.00 354.00,447.00
             354.00,447.00 354.00,446.00 354.00,446.00
             354.00,446.00 353.00,446.00 353.00,446.00 Z
           M 345.00,448.00
           C 345.00,448.00 346.00,449.00 346.00,449.00
             346.00,449.00 346.00,448.00 346.00,448.00
             346.00,448.00 345.00,448.00 345.00,448.00 Z
           M 368.00,448.00
           C 368.00,448.00 369.00,449.00 369.00,449.00
             369.00,449.00 369.00,448.00 369.00,448.00
             369.00,448.00 368.00,448.00 368.00,448.00 Z
           M 518.00,517.00
           C 518.00,517.00 519.00,518.00 519.00,518.00
             519.00,518.00 519.00,517.00 519.00,517.00
             519.00,517.00 518.00,517.00 518.00,517.00 Z" />
</svg>
